<svg xmlns="http://www.w3.org/2000/svg" width="1200" height="400" viewBox="0 0 1200 400">
  <rect width="1200" height="400" fill="#4a6fa5"/>
  <rect x="0" y="0" width="1200" height="400" fill="#3a5a8c" opacity="0.8"/>
  
  <!-- Career icons -->
  <g transform="translate(280, 150)">
    <circle cx="50" cy="50" r="45" fill="#ffffff" fill-opacity="0.2" stroke="#ffffff" stroke-width="2"/>
    <rect x="35" y="30" width="30" height="40" fill="white" rx="2" stroke="#ffffff" stroke-width="1"/>
    <line x1="40" y1="40" x2="60" y2="40" stroke="#4a6fa5" stroke-width="2"/>
    <line x1="40" y1="45" x2="55" y2="45" stroke="#4a6fa5" stroke-width="2"/>
    <line x1="40" y1="50" x2="60" y2="50" stroke="#4a6fa5" stroke-width="2"/>
    <line x1="40" y1="55" x2="50" y2="55" stroke="#4a6fa5" stroke-width="2"/>
  </g>
  
  <g transform="translate(460, 150)">
    <circle cx="50" cy="50" r="45" fill="#ffffff" fill-opacity="0.2" stroke="#ffffff" stroke-width="2"/>
    <path d="M35,65 L35,45 C35,37 42,30 50,30 C58,30 65,37 65,45 L65,65 Z" fill="white" stroke="#ffffff" stroke-width="1"/>
    <circle cx="50" cy="40" r="8" fill="#4a6fa5"/>
  </g>
  
  <g transform="translate(640, 150)">
    <circle cx="50" cy="50" r="45" fill="#ffffff" fill-opacity="0.2" stroke="#ffffff" stroke-width="2"/>
    <path d="M30,60 L40,30 L60,30 L70,60 Z" fill="white" stroke="#ffffff" stroke-width="1"/>
    <rect x="45" y="40" width="10" height="10" fill="#4a6fa5"/>
  </g>
  
  <g transform="translate(820, 150)">
    <circle cx="50" cy="50" r="45" fill="#ffffff" fill-opacity="0.2" stroke="#ffffff" stroke-width="2"/>
    <rect x="35" y="35" width="30" height="30" fill="white" stroke="#ffffff" stroke-width="1"/>
    <rect x="40" y="40" width="20" height="20" fill="#4a6fa5"/>
  </g>
  
  <!-- Title -->
  <text x="600" y="80" font-family="Arial" font-size="48" font-weight="bold" text-anchor="middle" fill="#ffffff">Careers</text>
  <text x="600" y="130" font-family="Arial" font-size="24" text-anchor="middle" fill="#ffffff">Join Our Team</text>
</svg>