<svg xmlns="http://www.w3.org/2000/svg" width="1200" height="400" viewBox="0 0 1200 400">
  <rect width="1200" height="400" fill="#2c3e50"/>
  <rect x="0" y="0" width="1200" height="400" fill="#34495e" opacity="0.7"/>
  
  <!-- Newspaper icons -->
  <g transform="translate(200, 150)">
    <rect x="0" y="0" width="160" height="200" fill="#ecf0f1" stroke="#bdc3c7" stroke-width="2"/>
    <rect x="20" y="20" width="120" height="20" fill="#bdc3c7"/>
    <rect x="20" y="50" width="120" height="10" fill="#bdc3c7"/>
    <rect x="20" y="70" width="120" height="10" fill="#bdc3c7"/>
    <rect x="20" y="90" width="120" height="10" fill="#bdc3c7"/>
    <rect x="20" y="120" width="60" height="60" fill="#bdc3c7"/>
    <rect x="90" y="120" width="50" height="5" fill="#bdc3c7"/>
    <rect x="90" y="135" width="50" height="5" fill="#bdc3c7"/>
    <rect x="90" y="150" width="50" height="5" fill="#bdc3c7"/>
    <rect x="90" y="165" width="50" height="5" fill="#bdc3c7"/>
  </g>
  
  <g transform="translate(450, 130)">
    <rect x="0" y="0" width="180" height="220" fill="#ecf0f1" stroke="#bdc3c7" stroke-width="2"/>
    <rect x="20" y="20" width="140" height="25" fill="#bdc3c7"/>
    <rect x="20" y="60" width="140" height="10" fill="#bdc3c7"/>
    <rect x="20" y="80" width="140" height="10" fill="#bdc3c7"/>
    <rect x="20" y="100" width="140" height="10" fill="#bdc3c7"/>
    <rect x="20" y="130" width="70" height="70" fill="#bdc3c7"/>
    <rect x="100" y="130" width="60" height="5" fill="#bdc3c7"/>
    <rect x="100" y="145" width="60" height="5" fill="#bdc3c7"/>
    <rect x="100" y="160" width="60" height="5" fill="#bdc3c7"/>
    <rect x="100" y="175" width="60" height="5" fill="#bdc3c7"/>
    <rect x="100" y="190" width="60" height="5" fill="#bdc3c7"/>
  </g>
  
  <g transform="translate(720, 150)">
    <rect x="0" y="0" width="160" height="200" fill="#ecf0f1" stroke="#bdc3c7" stroke-width="2"/>
    <rect x="20" y="20" width="120" height="20" fill="#bdc3c7"/>
    <rect x="20" y="50" width="120" height="10" fill="#bdc3c7"/>
    <rect x="20" y="70" width="120" height="10" fill="#bdc3c7"/>
    <rect x="20" y="90" width="120" height="10" fill="#bdc3c7"/>
    <rect x="20" y="120" width="60" height="60" fill="#bdc3c7"/>
    <rect x="90" y="120" width="50" height="5" fill="#bdc3c7"/>
    <rect x="90" y="135" width="50" height="5" fill="#bdc3c7"/>
    <rect x="90" y="150" width="50" height="5" fill="#bdc3c7"/>
    <rect x="90" y="165" width="50" height="5" fill="#bdc3c7"/>
  </g>
  
  <!-- Title -->
  <text x="600" y="80" font-family="Arial" font-size="48" font-weight="bold" text-anchor="middle" fill="#ffffff">News Coverage</text>
  <text x="600" y="130" font-family="Arial" font-size="24" text-anchor="middle" fill="#ffffff">Media Stories About Our Work</text>
</svg>